<svg width="656" height="578" viewBox="0 0 656 578" fill="none" xmlns="http://www.w3.org/2000/svg">
<path d="M623.977 380.323C625.295 429.788 575.832 477.584 520.75 509.982C501.464 521.359 481.554 530.794 462.822 537.801C402.537 560.347 351.825 558.613 314.363 557.434C313.808 557.364 313.323 557.365 312.768 557.365C311.589 557.295 310.339 557.295 309.16 557.225C247.14 554.659 184.357 541.27 129.137 512.341C127.68 511.578 126.222 510.815 124.766 509.982C77.1754 484.522 29.6545 448.171 25.214 390.244C22.9942 361.731 32.0131 332.733 49.1481 309.91C67.6705 285.282 94.7273 271.476 119.147 253.647C136.351 241.09 143.982 222.915 152.03 204.045C157.649 190.934 163.754 177.961 170.761 165.474C174.645 158.675 178.669 152.085 183.109 145.633C214.119 100.471 265.454 67.3789 319.844 59.6093C376.522 51.5623 430.634 77.993 467.749 120.519C490.157 146.117 505.557 177.753 512.217 211.122C517.697 238.385 512.078 272.516 533.306 293.884C557.934 318.651 593.314 311.296 613.363 342.167C623.353 357.499 623.769 373.525 623.977 380.323Z" fill="#DFEAF7"/>
<path fill-rule="evenodd" clip-rule="evenodd" d="M482.484 296.477C482.874 296.526 483.15 296.882 483.101 297.272L482.395 297.182L481.689 297.093C481.738 296.703 482.094 296.427 482.484 296.477ZM482.395 297.182C481.689 297.093 481.689 297.093 481.689 297.093L481.675 297.201C481.667 297.272 481.654 297.377 481.637 297.512C481.604 297.784 481.556 298.18 481.498 298.68C481.382 299.68 481.223 301.094 481.054 302.753C480.716 306.069 480.336 310.373 480.169 314.302C480.153 314.695 480.457 315.026 480.85 315.043C481.243 315.06 481.574 314.755 481.591 314.362C481.756 310.474 482.133 306.202 482.47 302.898C482.638 301.247 482.796 299.839 482.911 298.845C482.969 298.348 483.017 297.954 483.05 297.685C483.066 297.55 483.079 297.447 483.087 297.377L483.101 297.272L482.395 297.182Z" fill="#031603"/>
<path fill-rule="evenodd" clip-rule="evenodd" d="M501.096 296.438C501.507 296.496 501.793 296.877 501.735 297.288L501.72 297.393C501.711 297.462 501.696 297.566 501.678 297.7C501.641 297.969 501.589 298.363 501.524 298.86C501.395 299.854 501.218 301.26 501.03 302.911C500.654 306.214 500.233 310.483 500.049 314.368C500.029 314.783 499.677 315.103 499.262 315.084C498.847 315.064 498.526 314.712 498.546 314.297C498.732 310.364 499.158 306.057 499.535 302.74C499.724 301.081 499.902 299.666 500.032 298.666C500.097 298.165 500.15 297.769 500.188 297.497C500.206 297.361 500.221 297.256 500.23 297.185L500.246 297.077C500.246 297.077 500.246 297.077 500.973 297.18L500.246 297.077C500.304 296.666 500.685 296.379 501.096 296.438Z" fill="#031603"/>
<path d="M424.401 281.39C474.748 238.254 489.716 159.494 455.278 108.81C435.425 79.5925 404.825 68.052 389.796 63.6137C383.549 54.5158 367.709 34.2872 340.889 26.9196C294.119 14.0714 253.528 51.2066 247.793 56.4539C194.051 105.621 173.825 225.71 247.197 284.373C294.868 322.488 372.566 325.801 424.401 281.39Z" fill="#002D53"/>
<path d="M359.872 209.803V280.98H302.154V209.803H359.872Z" fill="#FFB3AE"/>
<path d="M359.872 209.803V244.074C329.417 246.294 312.004 242.339 302.154 236.303V209.803H359.872Z" fill="#FF7A72"/>
<path d="M416.884 167.057C411.381 181.709 397.994 190.235 386.983 186.1C375.971 181.965 371.506 166.733 377.01 152.08C382.513 137.427 395.901 128.902 406.912 133.037C417.923 137.172 422.387 152.403 416.884 167.057Z" fill="#FFB3AE"/>
<path d="M254.409 167.057C259.913 181.709 273.3 190.235 284.311 186.1C295.323 181.965 299.788 166.733 294.285 152.08C288.781 137.427 275.394 128.902 264.383 133.037C253.372 137.172 248.906 152.403 254.409 167.057Z" fill="#FFB3AE"/>
<path d="M389.351 153.482C398.635 179.019 369.335 230.002 331.849 230.002C300.091 230.002 274.347 195.743 274.347 153.482C274.347 107.445 320.544 71.3489 331.849 76.9612C336.394 79.2188 332.66 86.8688 336.753 100.006C346.515 131.34 381.44 131.72 389.351 153.482Z" fill="#FFB3AE"/>
<path d="M492.227 481.205L193.472 490.359L180.31 415.468C180.31 324.521 237.412 252.227 328.359 252.227C419.307 252.227 492.603 326.048 492.603 416.996L492.227 481.205Z" fill="#FFB042"/>
<path d="M150.359 418.349C150.161 369.332 152.993 307.626 169.34 304.701C169.903 304.6 171.855 304.279 173.771 305.352C186.669 312.577 169.589 367.168 150.359 418.349Z" fill="#40C1B0"/>
<path d="M150.302 418.376C124.907 377.241 113.098 370.019 107.154 372.094C104.907 372.878 103.354 375.042 102.821 377.027C99.1387 390.721 139.468 412.659 150.302 418.376Z" fill="#40C1B0"/>
<path d="M150.306 418.308C150.306 418.308 171.42 353.577 186.938 357.104C202.455 360.631 150.306 418.308 150.306 418.308Z" fill="#40C1B0"/>
<path d="M451.42 378.689V481.936H542.111V378.689H451.42Z" fill="#3D71F2"/>
<path d="M570.986 430.664C570.986 439.653 563.655 446.935 554.666 446.935C549.593 446.935 545.074 444.625 542.111 441.01V462.904C545.978 464.46 550.247 465.264 554.666 465.264C573.799 465.264 589.316 449.797 589.316 430.664C589.316 411.532 573.799 396.014 554.666 396.014C550.247 396.014 545.978 396.817 542.111 398.374V420.269C545.074 416.654 549.593 414.343 554.666 414.343C563.655 414.343 570.986 421.625 570.986 430.664Z" fill="#3D71F2"/>
<path d="M608.246 509.979H55.452V481.936H608.246V509.979Z" fill="#D18C7E"/>
<path d="M115.264 481.055H176.416L181.83 406.187H109.849L115.264 481.055Z" fill="#FF828A"/>
<path d="M454.103 468.062C454.103 475.693 447.86 481.936 440.229 481.936H216.491C208.86 481.936 202.616 475.693 202.616 468.062V328.451C202.616 320.82 208.86 314.576 216.491 314.576H440.229C447.86 314.576 454.103 320.82 454.103 328.451V468.062Z" fill="white"/>
<path d="M347.775 403.438C347.775 414.16 339.082 422.853 328.359 422.853C317.637 422.853 308.945 414.16 308.945 403.438C308.945 392.715 317.637 384.023 328.359 384.023C339.082 384.023 347.775 392.715 347.775 403.438Z" fill="#DFEAF7"/>
<path d="M520.75 509.982C501.464 521.359 481.554 530.794 462.822 537.801C402.537 560.347 351.825 558.613 314.363 557.434C313.808 557.364 313.323 557.365 312.768 557.365C311.589 557.295 310.339 557.295 309.16 557.225C247.14 554.659 184.357 541.27 129.137 512.341C127.68 511.578 126.222 510.815 124.766 509.982H520.75Z" fill="#BC7F72"/>
</svg>
